<?xml version="1.0" encoding="utf-8"?>
<!-- Generator: Adobe Illustrator 15.0.0, SVG Export Plug-In . SVG Version: 6.00 Build 0)  -->
<!DOCTYPE svg PUBLIC "-//W3C//DTD SVG 1.1//EN" "http://www.w3.org/Graphics/SVG/1.1/DTD/svg11.dtd">
<svg version="1.1" id="Layer_1" xmlns="http://www.w3.org/2000/svg" xmlns:xlink="http://www.w3.org/1999/xlink" x="0px" y="0px"
	 width="633.188px" height="633.189px" viewBox="0 0 633.188 633.189" enable-background="new 0 0 633.188 633.189"
	 xml:space="preserve">
<g id="Layer_X">
	<g id="change1">
		<path fill="#FFFFFF" d="M316.594,633.189c-84.565,0-164.068-32.932-223.865-92.729C32.932,480.663,0,401.159,0,316.594
			c0-84.565,32.932-164.069,92.729-223.865C152.525,32.932,232.029,0,316.594,0c84.565,0,164.069,32.932,223.866,92.729
			c59.796,59.796,92.728,139.3,92.728,223.865S600.256,480.663,540.46,540.46C480.663,600.258,401.159,633.189,316.594,633.189z
			 M316.594,3C143.678,3,3,143.678,3,316.594c0,172.917,140.678,313.596,313.594,313.596s313.594-140.679,313.594-313.596
			C630.188,143.678,489.51,3,316.594,3z"/>
		<path fill="#FFFFFF" d="M316.594,578.212c-69.88,0-135.578-27.213-184.991-76.626C82.19,452.172,54.977,386.475,54.977,316.594
			c0-69.88,27.213-135.578,76.626-184.991c49.413-49.413,115.111-76.626,184.991-76.626c69.881,0,135.578,27.213,184.991,76.626
			c49.412,49.413,76.625,115.11,76.625,184.991c0,69.881-27.213,135.579-76.625,184.992
			C452.172,550.999,386.475,578.212,316.594,578.212z M316.594,57.457c-142.889,0-259.137,116.249-259.137,259.137
			c0,142.89,116.249,259.14,259.137,259.14s259.138-116.25,259.138-259.14C575.731,173.705,459.482,57.457,316.594,57.457z"/>
		<path fill="#FFFFFF" d="M316.594,519.442c-111.85,0-202.847-90.997-202.847-202.849c0-111.85,90.997-202.847,202.847-202.847
			c111.851,0,202.847,90.997,202.847,202.847C519.44,428.445,428.444,519.442,316.594,519.442z M316.594,115.669
			c-110.79,0-200.925,90.135-200.925,200.925c0,110.791,90.135,200.927,200.925,200.927s200.925-90.136,200.925-200.927
			C517.519,205.804,427.384,115.669,316.594,115.669z"/>
	</g>
</g>
</svg>
